<svg version="1" xmlns="http://www.w3.org/2000/svg" width="334.667" height="334.667" viewBox="0 0 251.000000 251.000000"><path d="M115 35.6c-4.7 8-9.8 16.9-11.4 19.8-1.6 2.8-3.6 6.3-4.5 7.8-.9 1.4-4.3 7.3-7.5 13-3.3 5.7-7.8 13.4-10.1 17.3-2.3 3.8-4.5 7.7-4.8 8.5-.4.8-1.6 3-2.8 4.9-1.1 1.8-1.7 3.6-1.4 3.9.9 1 103.5.8 103.5-.1 0-.5-1.6-3.6-3.6-7s-4.8-8.2-6.2-10.7c-1.4-2.5-4.2-7.4-6.4-10.9-2.1-3.4-3.8-6.4-3.8-6.6 0-.2-6.4-11.3-14.2-24.7-7.8-13.4-14.8-25.5-15.6-27.1-.7-1.5-1.7-2.7-2.1-2.7-.4 0-4.5 6.6-9.1 14.6zM53.3 142.3c-2.2 4-8.9 15.4-14.7 25.5-5.8 10.1-10.6 18.5-10.6 18.6 0 .2-2.5 4.5-5.5 9.5-3 5.1-5.5 9.3-5.5 9.5 0 .2-2.5 4.5-5.5 9.6-3.1 5-5.7 9.7-5.8 10.3-.1.7 14.8 1.1 52.1 1.1 28.7.1 52.2 0 52.2-.1 0-.5-6.3-11.7-14.5-25.8-4.8-8.3-9.7-16.8-10.9-19-5.2-9.3-22.1-38.3-24.5-42.2l-2.6-4.1-4.2 7.1zM183.8 146.2c-3.5 6.2-15 26.2-25.6 44.4-10.5 18.2-19.2 33.7-19.4 34.4-.2 1.1 8.4 1.4 51 1.4 28.3.1 51.8-.1 52.3-.4.5-.3-.3-2.2-1.6-4.2-1.4-2.1-2.5-3.9-2.5-4.2 0-.3-1.7-3.4-3.8-6.8-2.1-3.5-5.2-8.8-6.9-11.8-3-5.5-36.3-63.2-36.8-63.8-.1-.1-3.1 4.8-6.7 11z"/></svg>